<svg width="171" height="15" viewBox="0 0 171 15" fill="none" xmlns="http://www.w3.org/2000/svg">
<g clip-path="url(#clip0_103_263)">
<path d="M15 7.5C15 9.48912 14.2098 11.3968 12.8033 12.8033C11.3968 14.2098 9.48912 15 7.5 15C5.51088 15 3.60322 14.2098 2.1967 12.8033C0.790177 11.3968 0 9.48912 0 7.5C0 5.51088 0.790177 3.60322 2.1967 2.1967C3.60322 0.790177 5.51088 0 7.5 0C9.48912 0 11.3968 0.790177 12.8033 2.1967C14.2098 3.60322 15 5.51088 15 7.5Z" fill="#7A3199"/>
</g>
<g clip-path="url(#clip1_103_263)">
<path d="M54 7.5C54 9.48912 53.2098 11.3968 51.8033 12.8033C50.3968 14.2098 48.4891 15 46.5 15C44.5109 15 42.6032 14.2098 41.1967 12.8033C39.7902 11.3968 39 9.48912 39 7.5C39 5.51088 39.7902 3.60322 41.1967 2.1967C42.6032 0.790177 44.5109 0 46.5 0C48.4891 0 50.3968 0.790177 51.8033 2.1967C53.2098 3.60322 54 5.51088 54 7.5Z" fill="#EEEEEE"/>
</g>
<g clip-path="url(#clip2_103_263)">
<path d="M93 7.5C93 9.48912 92.2098 11.3968 90.8033 12.8033C89.3968 14.2098 87.4891 15 85.5 15C83.5109 15 81.6032 14.2098 80.1967 12.8033C78.7902 11.3968 78 9.48912 78 7.5C78 5.51088 78.7902 3.60322 80.1967 2.1967C81.6032 0.790177 83.5109 0 85.5 0C87.4891 0 89.3968 0.790177 90.8033 2.1967C92.2098 3.60322 93 5.51088 93 7.5Z" fill="#EEEEEE"/>
</g>
<g clip-path="url(#clip3_103_263)">
<path d="M132 7.5C132 9.48912 131.21 11.3968 129.803 12.8033C128.397 14.2098 126.489 15 124.5 15C122.511 15 120.603 14.2098 119.197 12.8033C117.79 11.3968 117 9.48912 117 7.5C117 5.51088 117.79 3.60322 119.197 2.1967C120.603 0.790177 122.511 0 124.5 0C126.489 0 128.397 0.790177 129.803 2.1967C131.21 3.60322 132 5.51088 132 7.5Z" fill="#EEEEEE"/>
</g>
<g clip-path="url(#clip4_103_263)">
<path d="M171 7.5C171 9.48912 170.21 11.3968 168.803 12.8033C167.397 14.2098 165.489 15 163.5 15C161.511 15 159.603 14.2098 158.197 12.8033C156.79 11.3968 156 9.48912 156 7.5C156 5.51088 156.79 3.60322 158.197 2.1967C159.603 0.790177 161.511 0 163.5 0C165.489 0 167.397 0.790177 168.803 2.1967C170.21 3.60322 171 5.51088 171 7.5Z" fill="#EEEEEE"/>
</g>
<defs>
<clipPath id="clip0_103_263">
<rect width="15" height="15" fill="white"/>
</clipPath>
<clipPath id="clip1_103_263">
<rect width="15" height="15" fill="white" transform="translate(39)"/>
</clipPath>
<clipPath id="clip2_103_263">
<rect width="15" height="15" fill="white" transform="translate(78)"/>
</clipPath>
<clipPath id="clip3_103_263">
<rect width="15" height="15" fill="white" transform="translate(117)"/>
</clipPath>
<clipPath id="clip4_103_263">
<rect width="15" height="15" fill="white" transform="translate(156)"/>
</clipPath>
</defs>
</svg>
