<svg width="132" height="20" viewBox="0 0 132 20" fill="none" xmlns="http://www.w3.org/2000/svg">
<path d="M11.6875 2.89188L13.0919 5.58563C13.1964 5.78393 13.3463 5.95465 13.5295 6.08382C13.7126 6.21299 13.9238 6.29693 14.1456 6.32876L17.1119 6.73501C18.6981 6.95376 19.3131 8.90938 18.14 9.99688L16.1088 11.8713C15.9356 12.0304 15.8057 12.2308 15.731 12.4537C15.6563 12.6767 15.6395 12.915 15.6819 13.1463L16.1775 15.895C16.4531 17.4263 14.86 18.62 13.4619 17.92L10.6269 16.5138C10.4317 16.4183 10.2173 16.3686 10 16.3686C9.78273 16.3686 9.56832 16.4183 9.37315 16.5138L6.53815 17.92C5.1394 18.6138 3.5469 17.4263 3.82252 15.895L4.31815 13.1456C4.40565 12.6769 4.24315 12.1956 3.8919 11.8706L1.86002 9.99688C0.686897 8.91563 1.3019 6.95313 2.88815 6.73438L5.8544 6.32813C6.0769 6.29829 6.28891 6.21514 6.47238 6.08576C6.65584 5.95637 6.80534 5.78458 6.90815 5.58501L8.31315 2.89188C9.02815 1.53563 10.9781 1.53563 11.6869 2.89188H11.6875Z" fill="#FCD53F"/>
<path d="M39.6875 2.89188L41.0919 5.58563C41.1964 5.78393 41.3463 5.95465 41.5295 6.08382C41.7126 6.21299 41.9238 6.29693 42.1456 6.32876L45.1119 6.73501C46.6981 6.95376 47.3131 8.90938 46.14 9.99688L44.1088 11.8713C43.9356 12.0304 43.8057 12.2308 43.731 12.4537C43.6563 12.6767 43.6395 12.915 43.6819 13.1463L44.1775 15.895C44.4531 17.4263 42.86 18.62 41.4619 17.92L38.6269 16.5138C38.4317 16.4183 38.2173 16.3686 38 16.3686C37.7827 16.3686 37.5683 16.4183 37.3731 16.5138L34.5381 17.92C33.1394 18.6138 31.5469 17.4263 31.8225 15.895L32.3181 13.1456C32.4056 12.6769 32.2431 12.1956 31.8919 11.8706L29.86 9.99688C28.6869 8.91563 29.3019 6.95313 30.8881 6.73438L33.8544 6.32813C34.0769 6.29829 34.2889 6.21514 34.4724 6.08576C34.6558 5.95637 34.8053 5.78458 34.9081 5.58501L36.3131 2.89188C37.0281 1.53563 38.9781 1.53563 39.6869 2.89188H39.6875Z" fill="#FCD53F"/>
<path d="M67.6875 2.89188L69.0919 5.58563C69.1964 5.78393 69.3463 5.95465 69.5295 6.08382C69.7126 6.21299 69.9238 6.29693 70.1456 6.32876L73.1119 6.73501C74.6981 6.95376 75.3131 8.90938 74.14 9.99688L72.1088 11.8713C71.9356 12.0304 71.8057 12.2308 71.731 12.4537C71.6563 12.6767 71.6395 12.915 71.6819 13.1463L72.1775 15.895C72.4531 17.4263 70.86 18.62 69.4619 17.92L66.6269 16.5138C66.4317 16.4183 66.2173 16.3686 66 16.3686C65.7827 16.3686 65.5683 16.4183 65.3731 16.5138L62.5381 17.92C61.1394 18.6138 59.5469 17.4263 59.8225 15.895L60.3181 13.1456C60.4056 12.6769 60.2431 12.1956 59.8919 11.8706L57.86 9.99688C56.6869 8.91563 57.3019 6.95313 58.8881 6.73438L61.8544 6.32813C62.0769 6.29829 62.2889 6.21514 62.4724 6.08576C62.6558 5.95637 62.8053 5.78458 62.9081 5.58501L64.3131 2.89188C65.0281 1.53563 66.9781 1.53563 67.6869 2.89188H67.6875Z" fill="#FCD53F"/>
<path d="M95.6875 2.89188L97.0919 5.58563C97.1964 5.78393 97.3463 5.95465 97.5295 6.08382C97.7126 6.21299 97.9238 6.29693 98.1456 6.32876L101.112 6.73501C102.698 6.95376 103.313 8.90938 102.14 9.99688L100.109 11.8713C99.9356 12.0304 99.8057 12.2308 99.731 12.4537C99.6563 12.6767 99.6395 12.915 99.6819 13.1463L100.178 15.895C100.453 17.4263 98.86 18.62 97.4619 17.92L94.6269 16.5138C94.4317 16.4183 94.2173 16.3686 94 16.3686C93.7827 16.3686 93.5683 16.4183 93.3731 16.5138L90.5381 17.92C89.1394 18.6138 87.5469 17.4263 87.8225 15.895L88.3181 13.1456C88.4056 12.6769 88.2431 12.1956 87.8919 11.8706L85.86 9.99688C84.6869 8.91563 85.3019 6.95313 86.8881 6.73438L89.8544 6.32813C90.0769 6.29829 90.2889 6.21514 90.4724 6.08576C90.6558 5.95637 90.8053 5.78458 90.9081 5.58501L92.3131 2.89188C93.0281 1.53563 94.9781 1.53563 95.6869 2.89188H95.6875Z" fill="#FCD53F"/>
<path d="M123.688 2.89188L125.092 5.58563C125.196 5.78393 125.346 5.95465 125.529 6.08382C125.713 6.21299 125.924 6.29693 126.146 6.32876L129.112 6.73501C130.698 6.95376 131.313 8.90938 130.14 9.99688L128.109 11.8713C127.936 12.0304 127.806 12.2308 127.731 12.4537C127.656 12.6767 127.639 12.915 127.682 13.1463L128.178 15.895C128.453 17.4263 126.86 18.62 125.462 17.92L122.627 16.5138C122.432 16.4183 122.217 16.3686 122 16.3686C121.783 16.3686 121.568 16.4183 121.373 16.5138L118.538 17.92C117.139 18.6138 115.547 17.4263 115.823 15.895L116.318 13.1456C116.406 12.6769 116.243 12.1956 115.892 11.8706L113.86 9.99688C112.687 8.91563 113.302 6.95313 114.888 6.73438L117.854 6.32813C118.077 6.29829 118.289 6.21514 118.472 6.08576C118.656 5.95637 118.805 5.78458 118.908 5.58501L120.313 2.89188C121.028 1.53563 122.978 1.53563 123.687 2.89188H123.688Z" fill="#FCD53F"/>
</svg>
